<svg xmlns="http://www.w3.org/2000/svg" viewBox="0 0 60 60"><defs><style>.cls-1{fill:#e9282e;}.cls-2{fill:#9c1e22;}.cls-3{fill:#fff;}</style></defs><title>60x60</title><g id="Laag_2" data-name="Laag 2"><g id="Laag_1-2" data-name="Laag 1"><g id="_60x60" data-name="60x60"><rect class="cls-1" width="60" height="60" rx="10"/><path class="cls-2" d="M60,50V30.17L48.52,15.78A1.78,1.78,0,0,0,46.74,14L23.27,15.2H19.9L14.26,15a1.78,1.78,0,0,0-1.78,1.78L13.23,21l3.34,5.6-2.31.4a1.78,1.78,0,0,0-1.78,1.78l1,4.72,4.67,6.63-4.89-.53c-1,0-.78.8-.78,1.78l.79,4.7L25.35,60H50A10,10,0,0,0,60,50Z"/><rect class="cls-3" x="12.19" y="14" width="7" height="7" rx="2"/><rect class="cls-3" x="23.27" y="14" width="25.26" height="7" rx="2"/><rect class="cls-3" x="12.19" y="26.5" width="7" height="7" rx="2"/><rect class="cls-3" x="23.27" y="26.5" width="21.54" height="7" rx="2"/><rect class="cls-3" x="11.84" y="39.08" width="7" height="7" rx="2"/><rect class="cls-3" x="23.1" y="39.08" width="25.87" height="7" rx="2"/></g></g></g></svg>